<svg width="85" height="32" viewBox="0 0 85 32" fill="none" xmlns="http://www.w3.org/2000/svg">
<path d="M10.2414 0.5H15.5618L25.4804 31.25H20.0841L17.5759 23.5842H8.1513L5.68114 31.25H0.28479L10.2414 0.5ZM16.6258 19.3831L12.9016 6.69331L9.02535 19.3831H16.6258Z" fill="white"/>
<path d="M31.252 0.5L37.9405 11.8472L44.5909 0.5H50.2913L40.9427 16.0915L49.9872 31.25H44.2869L37.9405 20.3359L31.5561 31.25H25.8177L34.8623 16.0915L25.5137 0.5H31.252Z" fill="white"/>
<path d="M53.0078 31.25V0.5H58.2522V31.25H53.0078Z" fill="#EC7979"/>
<path d="M84.0609 5.74049H75.4343V31.25H70.228V5.74049H61.6014V0.5H84.0609V5.74049Z" fill="#EC7979"/>
</svg>
